<?xml version="1.0" encoding="utf-8"?>
<!-- Generator: Adobe Illustrator 19.2.1, SVG Export Plug-In . SVG Version: 6.00 Build 0)  -->
<svg version="1.1" id="Layer_1" xmlns="http://www.w3.org/2000/svg" xmlns:xlink="http://www.w3.org/1999/xlink" x="0px" y="0px"
	 viewBox="0 0 24 24" style="enable-background:new 0 0 24 24;" xml:space="preserve">
<style type="text/css">
	.st0{fill:#FFFFFF;}
	.st1{fill:#009EDB;}
	.st2{display:none;fill:none;}
	.st3{fill:#9CCC3C;}
	.st4{fill:none;stroke:#000000;stroke-miterlimit:10;}
	.st5{fill:#FF9F02;}
	.st6{fill:#FFA101;}
	.st7{fill:#293275;}
	.st8{fill:none;stroke:#009EDB;stroke-width:1.855;stroke-miterlimit:10;}
	.st9{fill:#915602;}
</style>
<g id="New_Symbol">
</g>
<ellipse class="st3" cx="13.8" cy="5" rx="2.7" ry="3"/>
<ellipse class="st3" cx="5.7" cy="14" rx="2.7" ry="3"/>
<path class="st3" d="M19.2,17c-1.5,0-2.7-1.3-2.7-3s1.2-3,2.7-3c0.7,0,1.3,0.3,1.8,0.8V7H7v15h4.8c-0.4-0.5-0.7-1.2-0.7-2
	c0-1.7,1.2-3,2.7-3s2.7,1.3,2.7,3c0,0.8-0.3,1.5-0.7,2H21v-5.8C20.5,16.7,19.9,17,19.2,17z"/>
</svg>
