<?xml version="1.0" encoding="utf-8"?>
<!-- Generator: Adobe Illustrator 19.2.1, SVG Export Plug-In . SVG Version: 6.00 Build 0)  -->
<svg version="1.1" id="Layer_1" xmlns="http://www.w3.org/2000/svg" xmlns:xlink="http://www.w3.org/1999/xlink" x="0px" y="0px"
	 viewBox="0 0 24 24" style="enable-background:new 0 0 24 24;" xml:space="preserve">
<style type="text/css">
	.st0{fill:#FFFFFF;}
	.st1{fill:#009EDB;}
	.st2{display:none;fill:none;}
	.st3{fill:#9CCC3C;}
	.st4{fill:none;stroke:#000000;stroke-miterlimit:10;}
	.st5{fill:#FF9F02;}
	.st6{fill:#FFA101;}
	.st7{fill:#293275;}
	.st8{fill:none;stroke:#009EDB;stroke-width:1.855;stroke-miterlimit:10;}
	.st9{fill:#915602;}
</style>
<g id="New_Symbol">
</g>
<rect x="3" y="11" width="13" height="4"/>
<rect x="3" y="5" width="13" height="4"/>
<polygon class="st5" points="13,12 10,13 10,10 17,0 20,2 "/>
<path d="M17,11v4h4v-4H17z M20,14h-2v-2h2V14z"/>
<rect x="3" y="17" width="13" height="4"/>
<path d="M17,17v4h4v-4H17z M20,20h-2v-2h2V20z"/>
<path d="M17,5v4h4V5H17z M20,8h-2V6h2V8z"/>
</svg>
