<?xml version="1.0" encoding="utf-8"?>
<!-- Generator: Adobe Illustrator 19.2.1, SVG Export Plug-In . SVG Version: 6.00 Build 0)  -->
<svg version="1.1" id="Layer_1" xmlns="http://www.w3.org/2000/svg" xmlns:xlink="http://www.w3.org/1999/xlink" x="0px" y="0px"
	 viewBox="0 0 24 24" style="enable-background:new 0 0 24 24;" xml:space="preserve">
<style type="text/css">
	.st0{fill:#FFFFFF;}
	.st1{fill:#009EDB;}
	.st2{display:none;fill:none;}
	.st3{fill:#9CCC3C;}
	.st4{fill:none;stroke:#000000;stroke-miterlimit:10;}
	.st5{fill:#FF9F02;}
	.st6{fill:#FFA101;}
	.st7{fill:#293275;}
	.st8{fill:none;stroke:#009EDB;stroke-width:1.855;stroke-miterlimit:10;}
	.st9{fill:#915602;}
</style>
<g id="New_Symbol">
</g>
<path class="st8" d="M21,6c2.4,4.4,0.4,10.7-4,14S6.4,22.4,4,18S3.6,7.3,8,4S18.6,1.6,21,6z"/>
<path class="st5" d="M9,4c0-1.1-1.1-2-2-2S5,2.9,5,4s1.1,2,2,2S9,5.1,9,4z"/>
<path class="st5" d="M10,21c0-1.1-1.1-2-2-2s-2,0.9-2,2s1.1,2,2,2S10,22.1,10,21z"/>
<path class="st5" d="M22,16c0-1.1-1.1-2-2-2s-2,0.9-2,2s1.1,2,2,2S22,17.1,22,16z"/>
</svg>
