<?xml version="1.0" encoding="utf-8"?>
<!-- Generator: Adobe Illustrator 19.2.1, SVG Export Plug-In . SVG Version: 6.00 Build 0)  -->
<svg version="1.1" id="Layer_1" xmlns="http://www.w3.org/2000/svg" xmlns:xlink="http://www.w3.org/1999/xlink" x="0px" y="0px"
	 viewBox="0 0 24 24" style="enable-background:new 0 0 24 24;" xml:space="preserve">
<style type="text/css">
	.st0{fill:#FFFFFF;}
	.st1{fill:#009EDB;}
	.st2{display:none;fill:none;}
	.st3{fill:#9CCC3C;}
	.st4{fill:none;stroke:#000000;stroke-miterlimit:10;}
	.st5{fill:#FF9F02;}
	.st6{fill:#FFA101;}
	.st7{fill:#293275;}
	.st8{fill:none;stroke:#009EDB;stroke-width:1.855;stroke-miterlimit:10;}
	.st9{fill:#915602;}
</style>
<g id="New_Symbol">
</g>
<rect x="3" width="18" height="24"/>
<rect x="5" y="2" class="st1" width="14" height="15"/>
<g>
	<g>
		<path class="st0" d="M12,16c1.3,0,2.7,0,4,0c1.2,0,1.7-0.4,1.7-1.6c-0.1-0.9-0.3-1.8-0.6-2.7c-0.2-0.6-0.7-1-1.3-1.2
			c-0.5-0.2-0.9-0.2-1.4,0.1c-1.6,1-3.1,1-4.7,0c-0.7-0.4-1.5-0.3-2.2,0.3c-0.7,0.7-1,1.7-1.1,2.6C6.3,15.7,6.8,16,9,16
			C10,16,12,16,12,16z"/>
		<path class="st0" d="M12,10.7c1.9,0,3.2-1.3,3-3.1c-0.1-1.4-1.6-2.6-3.1-2.4c-1.4,0.1-2.6,1-2.9,2.2C8.7,9.1,10.1,10.7,12,10.7z"
			/>
	</g>
</g>
</svg>
