<?xml version="1.0" encoding="utf-8"?>
<!-- Generator: Adobe Illustrator 19.2.1, SVG Export Plug-In . SVG Version: 6.00 Build 0)  -->
<svg version="1.1" id="Layer_1" xmlns="http://www.w3.org/2000/svg" xmlns:xlink="http://www.w3.org/1999/xlink" x="0px" y="0px"
	 viewBox="0 0 24 24" style="enable-background:new 0 0 24 24;" xml:space="preserve">
<style type="text/css">
	.st0{fill:#FFFFFF;}
	.st1{fill:#009EDB;}
	.st2{display:none;fill:none;}
	.st3{fill:#9CCC3C;}
	.st4{fill:none;stroke:#000000;stroke-miterlimit:10;}
	.st5{fill:#FF9F02;}
	.st6{fill:#FFA101;}
	.st7{fill:#293275;}
	.st8{fill:none;stroke:#009EDB;stroke-width:1.855;stroke-miterlimit:10;}
	.st9{fill:#915602;}
</style>
<g id="New_Symbol">
</g>
<path class="st1" d="M20,13H4H2v2h2v9h16v-9h2v-2H20z M14,17h-4c-0.5,0-1-0.5-1-1c0-0.5,0.5-1,1-1h4c0.5,0,1,0.5,1,1
	C15,16.5,14.5,17,14,17z"/>
<path class="st1" d="M20,0H4H2v2h2v9h16V2h2V0H20z M14,5h-4C9.5,5,9,4.5,9,4c0-0.5,0.5-1,1-1h4c0.5,0,1,0.5,1,1C15,4.5,14.5,5,14,5z
	"/>
</svg>
