<?xml version="1.0" encoding="utf-8"?>
<!-- Generator: Adobe Illustrator 19.2.1, SVG Export Plug-In . SVG Version: 6.00 Build 0)  -->
<svg version="1.1" id="Layer_1" xmlns="http://www.w3.org/2000/svg" xmlns:xlink="http://www.w3.org/1999/xlink" x="0px" y="0px"
	 viewBox="0 0 24 24" style="enable-background:new 0 0 24 24;" xml:space="preserve">
<style type="text/css">
	.st0{fill:#FFFFFF;}
	.st1{fill:#009EDB;}
	.st2{display:none;fill:none;}
	.st3{fill:#9CCC3C;}
	.st4{fill:none;stroke:#000000;stroke-miterlimit:10;}
	.st5{fill:#FF9F02;}
	.st6{fill:#FFA101;}
	.st7{fill:#293275;}
	.st8{fill:none;stroke:#009EDB;stroke-width:1.855;stroke-miterlimit:10;}
	.st9{fill:#915602;}
</style>
<g id="New_Symbol">
	<polygon class="st1" points="3,0 3,24 21,24 21,7 15,7 15,0 	"/>
	<polygon class="st1" points="16,6 16,0 21,6 	"/>
</g>
<rect x="5" y="16" transform="matrix(-1 -4.141721e-011 4.141721e-011 -1 23 33)" class="st0" width="13" height="1"/>
<rect x="5" y="18" transform="matrix(-1 -4.155710e-011 4.155710e-011 -1 23 37)" class="st0" width="13" height="1"/>
<rect x="5" y="20" transform="matrix(-1 -4.155710e-011 4.155710e-011 -1 23 41)" class="st0" width="13" height="1"/>
<polygon class="st3" points="14,8 14,5 5,5 5,13 18,13 18,8 "/>
</svg>
