<?xml version="1.0" encoding="utf-8"?>
<!-- Generator: Adobe Illustrator 19.2.1, SVG Export Plug-In . SVG Version: 6.00 Build 0)  -->
<svg version="1.1" id="Layer_1" xmlns="http://www.w3.org/2000/svg" xmlns:xlink="http://www.w3.org/1999/xlink" x="0px" y="0px"
	 viewBox="0 0 24 24" style="enable-background:new 0 0 24 24;" xml:space="preserve">
<style type="text/css">
	.st0{fill:#009EDB;}
	.st1{display:none;fill:none;}
	.st2{fill:#FFFFFF;}
	.st3{fill:#9CCC3C;}
	.st4{fill:none;stroke:#000000;stroke-miterlimit:10;}
	.st5{fill:#FF9F02;}
	.st6{fill:#FFA101;}
	.st7{fill:#293275;}
	.st8{fill:none;stroke:#009EDB;stroke-width:1.855;stroke-miterlimit:10;}
	.st9{fill:#915602;}
</style>
<symbol  id="New_Symbol_1_" viewBox="-9 -12 18 24">
	<polygon class="st0" points="-9,12 -9,-12 9,-12 9,5 3,5 3,12 	"/>
	<polygon class="st0" points="4,6 4,12 9,6 	"/>
	<rect x="-9" y="-12" class="st1" width="18" height="24"/>
</symbol>
<g id="New_Symbol">
</g>
<use xlink:href="#New_Symbol_1_"  width="18" height="24" id="XMLID_4_" x="-9" y="-12" transform="matrix(1 0 0 -1 12 12)" style="overflow:visible;"/>
<rect x="6" y="9" class="st2" width="2" height="10"/>
<rect x="16" y="9" class="st2" width="2" height="10"/>
<polygon class="st2" points="8,19 6,19 13,11 15,11 "/>
<polygon class="st2" points="16,19 18,19 12,11 10,11 "/>
<rect x="5" y="9" class="st2" width="4" height="1"/>
<rect x="15" y="9" class="st2" width="4" height="1"/>
<rect x="10" y="11" class="st2" width="5" height="1"/>
</svg>
