<?xml version="1.0" encoding="utf-8"?>
<!-- Generator: Adobe Illustrator 19.2.1, SVG Export Plug-In . SVG Version: 6.00 Build 0)  -->
<svg version="1.1" id="Layer_1" xmlns="http://www.w3.org/2000/svg" xmlns:xlink="http://www.w3.org/1999/xlink" x="0px" y="0px"
	 viewBox="0 0 24 24" style="enable-background:new 0 0 24 24;" xml:space="preserve">
<style type="text/css">
	.st0{fill:#FFFFFF;}
	.st1{fill:#009EDB;}
	.st2{display:none;fill:none;}
	.st3{fill:#9CCC3C;}
	.st4{fill:none;stroke:#000000;stroke-miterlimit:10;}
	.st5{fill:#FF9F02;}
	.st6{fill:#FFA101;}
	.st7{fill:#293275;}
	.st8{fill:none;stroke:#009EDB;stroke-width:1.855;stroke-miterlimit:10;}
	.st9{fill:#915602;}
</style>
<g id="New_Symbol">
</g>
<path class="st1" d="M9.9,13.5C9.9,10.1,16,8.6,16,6c0-1.6-1.6-3-4-3C9.8,3,6.5,4.2,5,5V2c1-0.6,3.7-2,7-2c4.6,0,7,2.5,7,6
	c0,4.6-6,5.8-6,8c0,0.7-0.4,1.3,0,2h-3C10,14.9,9.9,14.2,9.9,13.5z M11.2,18.9c1.6,0,2.6,1.1,2.6,2.5c0,1.5-1,2.6-2.6,2.6
	c-1.4,0-2.5-1-2.5-2.6C8.7,20,9.7,18.9,11.2,18.9z"/>
</svg>
