<?xml version="1.0" encoding="utf-8"?>
<!-- Generator: Adobe Illustrator 19.2.1, SVG Export Plug-In . SVG Version: 6.00 Build 0)  -->
<svg version="1.1" id="Layer_1" xmlns="http://www.w3.org/2000/svg" xmlns:xlink="http://www.w3.org/1999/xlink" x="0px" y="0px"
	 viewBox="0 0 24 24" style="enable-background:new 0 0 24 24;" xml:space="preserve">
<style type="text/css">
	.st0{fill:#FFFFFF;}
	.st1{fill:#009EDB;}
	.st2{display:none;fill:none;}
	.st3{fill:#9CCC3C;}
	.st4{fill:none;stroke:#000000;stroke-miterlimit:10;}
	.st5{fill:#FF9F02;}
	.st6{fill:#FFA101;}
	.st7{fill:#293275;}
	.st8{fill:none;stroke:#009EDB;stroke-width:1.855;stroke-miterlimit:10;}
	.st9{fill:#915602;}
</style>
<g id="New_Symbol">
</g>
<g>
	<g>
		<path d="M14.5,11c1.3,0,2.5,0,3.8,0c1.2,0,1.7-0.8,1.7-2c0-0.9-0.3-1.8-0.6-2.7c-0.2-0.6-0.7-1-1.3-1.2c-0.5-0.2-0.9-0.2-1.4,0.1
			c-1.6,1-3.1,1-4.7,0c-0.7-0.4-1.5-0.3-2.2,0.3C9.1,6.3,9.1,7,9,8c-0.2,2.2,0.3,3,2.5,3C12.5,11,13.5,11,14.5,11
			C14.5,11,14.5,11,14.5,11z"/>
		<path d="M14.6,5c1.6,0,2.7-1.2,2.5-2.8C17,0.9,15.7-0.1,14.5,0c-1.2,0.1-2.2,0.9-2.4,2C11.8,3.6,12.9,5,14.6,5z"/>
	</g>
</g>
<g>
	<g>
		<path class="st1" d="M11.5,18c1.3,0,2.5,0,3.8,0c1.2,0,1.8-0.8,1.7-2c0-0.9-0.3-1.8-0.6-2.7c-0.2-0.6-0.7-1-1.3-1.2
			c-0.5-0.2-0.9-0.2-1.4,0.1c-1.6,1-3.1,1-4.7,0c-0.7-0.4-1.5-0.3-2.2,0.3C6.1,13.3,6.1,14,6,15c-0.2,2.2,0.3,3,2.5,3
			C9.5,18,10.5,18,11.5,18C11.5,18,11.5,18,11.5,18z"/>
		<path class="st1" d="M11.6,12c1.6,0,2.7-1.2,2.5-2.8C14,7.9,12.7,6.9,11.5,7c-1.2,0.1-2.2,0.9-2.4,2C8.8,10.6,9.9,12,11.6,12z"/>
	</g>
</g>
<g>
	<g>
		<path d="M8.5,24c1.3,0,2.5,0,3.8,0c1.2,0,1.7-0.9,1.7-2c0-1.1-0.3-1.8-0.6-2.7c-0.2-0.6-0.7-1-1.3-1.2c-0.5-0.2-0.9-0.2-1.4,0.1
			c-1.6,1-3.1,1-4.7,0c-0.7-0.4-1.5-0.3-2.2,0.3C3.1,19.3,3,20,3,21c0,2.2,0.3,3,2.5,3C6.5,24,7.5,24,8.5,24C8.5,24,8.5,24,8.5,24z"
			/>
		<path d="M8.5,18c1.6,0,2.7-1.2,2.5-2.8c-0.1-1.3-1.4-2.3-2.6-2.2c-1.2,0.1-2.2,0.9-2.4,2C5.7,16.6,6.9,18,8.5,18z"/>
	</g>
</g>
</svg>
