<?xml version="1.0" encoding="utf-8"?>
<!-- Generator: Adobe Illustrator 19.2.1, SVG Export Plug-In . SVG Version: 6.00 Build 0)  -->
<svg version="1.1" id="Layer_1" xmlns="http://www.w3.org/2000/svg" xmlns:xlink="http://www.w3.org/1999/xlink" x="0px" y="0px"
	 viewBox="0 0 24 24" style="enable-background:new 0 0 24 24;" xml:space="preserve">
<style type="text/css">
	.st0{fill:#009EDB;}
	.st1{display:none;fill:none;}
	.st2{fill:#FFFFFF;}
	.st3{fill:#9CCC3C;}
	.st4{fill:none;stroke:#000000;stroke-miterlimit:10;}
	.st5{fill:#FF9F02;}
	.st6{fill:#FFA101;}
	.st7{fill:#293275;}
	.st8{fill:none;stroke:#009EDB;stroke-width:1.855;stroke-miterlimit:10;}
	.st9{fill:#915602;}
</style>
<symbol  id="New_Symbol_1_" viewBox="-9 -12 18 24">
	<polygon class="st0" points="-9,12 -9,-12 9,-12 9,5 3,5 3,12 	"/>
	<polygon class="st0" points="4,6 4,12 9,6 	"/>
	<rect x="-9" y="-12" class="st1" width="18" height="24"/>
</symbol>
<use xlink:href="#New_Symbol_1_"  width="18" height="24" id="XMLID_3_" x="-9" y="-12" transform="matrix(1 0 0 -1 12 12)" style="overflow:visible;"/>
<g id="New_Symbol">
</g>
<polygon class="st5" points="14,12 11,13 11,10 18,0 21,2 "/>
<path class="st2" d="M15,15h-1h-4V8H8v7v2v2v2h2h4h1h1v-6H15z M10,19v-2h4v2H10z"/>
</svg>
