<?xml version="1.0" encoding="utf-8"?>
<!-- Generator: Adobe Illustrator 19.2.1, SVG Export Plug-In . SVG Version: 6.00 Build 0)  -->
<svg version="1.1" id="Layer_1" xmlns="http://www.w3.org/2000/svg" xmlns:xlink="http://www.w3.org/1999/xlink" x="0px" y="0px"
	 viewBox="0 0 24 24" style="enable-background:new 0 0 24 24;" xml:space="preserve">
<style type="text/css">
	.st0{fill:#FFFFFF;}
	.st1{fill:#009EDB;}
	.st2{display:none;fill:none;}
	.st3{fill:#9CCC3C;}
	.st4{fill:none;stroke:#000000;stroke-miterlimit:10;}
	.st5{fill:#FF9F02;}
	.st6{fill:#FFA101;}
	.st7{fill:#293275;}
	.st8{fill:none;stroke:#009EDB;stroke-width:1.855;stroke-miterlimit:10;}
	.st9{fill:#915602;}
</style>
<g id="New_Symbol">
</g>
<path class="st1" d="M18.5,11.3c0,0,0,5.1-0.3,6.7c-0.8,4.5-1.6,6-1.6,6h-6.2c0,0-1.2-0.4-0.8-2c0.4-1.5,3.5-1.9,4.4-5.1
	c0.7-2.8,0.6-3.3,0.6-3.3L18.5,11.3z"/>
<path class="st1" d="M14.7,9.6c0-2.3,1.4-4.2,3.2-4.2c1.7,0,3.2,1.9,3.2,4.2s-1.4,3.9-3.2,3.9C16.1,13.5,14.7,11.9,14.7,9.6z"/>
<path class="st1" d="M18,5c0,0-4.5,0.4-6,0c-1.5-0.4-6-3-6-3v15c0,0,4.5-2.6,6-3c1.4-0.4,6,0,6,0V5z"/>
<polygon class="st3" points="12,5 12,14 6,17 6,2 "/>
<path class="st1" d="M4.5,19.1L4.5,19.1c0.8,0,1.5-0.7,1.5-1.5v-16c0-0.8-0.7-1.5-1.5-1.5h0C3.7,0.1,3,0.8,3,1.6v16
	C3,18.4,3.7,19.1,4.5,19.1z"/>
</svg>
