<?xml version="1.0" encoding="utf-8"?>
<!-- Generator: Adobe Illustrator 19.2.1, SVG Export Plug-In . SVG Version: 6.00 Build 0)  -->
<svg version="1.1" id="Layer_1" xmlns="http://www.w3.org/2000/svg" xmlns:xlink="http://www.w3.org/1999/xlink" x="0px" y="0px"
	 viewBox="0 0 24 24" style="enable-background:new 0 0 24 24;" xml:space="preserve">
<style type="text/css">
	.st0{fill:#FFFFFF;}
	.st1{fill:#009EDB;}
	.st2{display:none;fill:none;}
	.st3{fill:#9CCC3C;}
	.st4{fill:none;stroke:#000000;stroke-miterlimit:10;}
	.st5{fill:#FF9F02;}
	.st6{fill:#FFA101;}
	.st7{fill:#293275;}
	.st8{fill:none;stroke:#009EDB;stroke-width:1.855;stroke-miterlimit:10;}
	.st9{fill:#915602;}
</style>
<g id="New_Symbol">
</g>
<ellipse class="st1" cx="12" cy="12" rx="9" ry="10"/>
<g>
	<g>
		<path class="st0" d="M14.5,14c1.3,0,2.5,0,3.8,0c1.2,0,1.8-0.8,1.7-2c0-0.9-0.3-1.8-0.6-2.7c-0.2-0.6-0.7-1-1.3-1.2
			c-0.5-0.2-0.9-0.2-1.4,0.1c-1.6,1-3.1,1-4.7,0c-0.7-0.4-1.5-0.3-2.2,0.3C9.1,9.3,9.1,10,9,11c-0.2,2.2,0.3,3,2.5,3
			C12.5,14,13.5,14,14.5,14C14.5,14,14.5,14,14.5,14z"/>
		<path class="st0" d="M14.6,8c1.6,0,2.7-1.2,2.5-2.8C17,3.9,15.7,2.9,14.5,3c-1.2,0.1-2.2,0.9-2.4,2C11.8,6.6,12.9,8,14.6,8z"/>
	</g>
</g>
<g>
	<g>
		<path d="M11.5,20c1.3,0,2.5,0,3.8,0c1.2,0,1.7-0.9,1.7-2c0-1.1-0.3-1.8-0.6-2.7c-0.2-0.6-0.7-1-1.3-1.2c-0.5-0.2-0.9-0.2-1.4,0.1
			c-1.6,1-3.1,1-4.7,0c-0.7-0.4-1.5-0.3-2.2,0.3C6.1,15.3,6,16,6,17c0,2.2,0.3,3,2.5,3C9.5,20,10.5,20,11.5,20
			C11.5,20,11.5,20,11.5,20z"/>
		<path d="M11.5,14c1.6,0,2.7-1.2,2.5-2.8C14,9.9,12.7,8.9,11.4,9c-1.2,0.1-2.2,0.9-2.4,2C8.8,12.6,9.9,14,11.5,14z"/>
	</g>
</g>
</svg>
