<?xml version="1.0" encoding="utf-8"?>
<!-- Generator: Adobe Illustrator 19.2.1, SVG Export Plug-In . SVG Version: 6.00 Build 0)  -->
<svg version="1.1" id="Layer_1" xmlns="http://www.w3.org/2000/svg" xmlns:xlink="http://www.w3.org/1999/xlink" x="0px" y="0px"
	 viewBox="0 0 24 24" style="enable-background:new 0 0 24 24;" xml:space="preserve">
<style type="text/css">
	.st0{fill:#FFFFFF;}
	.st1{fill:#009EDB;}
	.st2{display:none;fill:none;}
	.st3{fill:#9CCC3C;}
	.st4{fill:none;stroke:#000000;stroke-miterlimit:10;}
	.st5{fill:#FF9F02;}
	.st6{fill:#FFA101;}
	.st7{fill:#293275;}
	.st8{fill:none;stroke:#009EDB;stroke-width:1.855;stroke-miterlimit:10;}
	.st9{fill:#915602;}
</style>
<g id="New_Symbol">
</g>
<g>
	<g>
		<path class="st1" d="M15.5,19c1.3,0,2.5,0,3.8,0c1.2,0,1.8-0.7,1.7-2c0-0.9,0-1,0-2c0-0.6-1.2-1.7-1.9-1.9
			c-0.5-0.2-0.9-0.2-1.4,0.1c-1.6,1-3.1,1-4.7,0c-0.7-0.4-1.5-0.3-2.2,0.3C10.1,14.3,10.1,15,10,16c-0.2,2.2,0.3,3,2.5,3
			C13.5,19,14.5,19,15.5,19C15.5,19,15.5,19,15.5,19z"/>
		<path class="st1" d="M15.6,13c1.6,0,2.7-1.2,2.5-2.8C18,8.9,16.7,7.9,15.5,8c-1.2,0.1-2.2,0.9-2.4,2C12.8,11.6,13.9,13,15.6,13z"
			/>
	</g>
</g>
<g>
	<g>
		<path d="M8.5,24c1.3,0,2.6,0,3.8,0c1.2,0,1.8-1,1.8-3c0-1.1-0.1-2.7-1.9-2.9C11.6,18,10.3,19,9,19c-3.3,0-2.2-0.9-4-1
			c-1,0-2,1.1-2,3c0,2.2,0.3,3,2.5,3C6.5,24,7.5,24,8.5,24C8.5,24,8.5,24,8.5,24z"/>
		<path d="M8.5,18c1.6,0,2.7-1.2,2.5-2.8C11,14,9.7,12.9,8.4,13c-1.2,0.1-2.2,0.9-2.4,2C5.8,16.6,6.9,18,8.5,18z"/>
	</g>
</g>
<polygon points="14,0 14,5 14,10 11,8 3,8 3,0 "/>
<rect x="5" y="2" class="st0" width="7" height="1"/>
<rect x="5" y="5" class="st0" width="7" height="1"/>
</svg>
