<?xml version="1.0" encoding="utf-8"?>
<!-- Generator: Adobe Illustrator 19.2.1, SVG Export Plug-In . SVG Version: 6.00 Build 0)  -->
<svg version="1.1" id="Layer_1" xmlns="http://www.w3.org/2000/svg" xmlns:xlink="http://www.w3.org/1999/xlink" x="0px" y="0px"
	 viewBox="0 0 24 24" style="enable-background:new 0 0 24 24;" xml:space="preserve">
<style type="text/css">
	.st0{fill:#FFFFFF;}
	.st1{fill:#009EDB;}
	.st2{display:none;fill:none;}
	.st3{fill:#9CCC3C;}
	.st4{fill:none;stroke:#000000;stroke-miterlimit:10;}
	.st5{fill:#FF9F02;}
	.st6{fill:#FFA101;}
	.st7{fill:#293275;}
	.st8{fill:none;stroke:#009EDB;stroke-width:1.855;stroke-miterlimit:10;}
	.st9{fill:#915602;}
</style>
<polygon class="st1" points="3,13 3,24 21,24 21,17 16,17 16,13 "/>
<g id="New_Symbol">
</g>
<polygon class="st1" points="3,0 3,11 21,11 21,4 16,4 16,0 "/>
<rect x="6" y="5" transform="matrix(-1 -4.486867e-011 4.486867e-011 -1 24 11)" class="st0" width="12" height="1"/>
<rect x="6" y="8" transform="matrix(-1 -4.502011e-011 4.502011e-011 -1 24 17)" class="st0" width="12" height="1"/>
<rect x="6" y="18" transform="matrix(-1 -4.486867e-011 4.486867e-011 -1 24 37)" class="st0" width="12" height="1"/>
<rect x="6" y="21" transform="matrix(-1 -4.502011e-011 4.502011e-011 -1 24 43)" class="st0" width="12" height="1"/>
<polygon class="st1" points="17,0 17,3 21,3 "/>
<polygon class="st1" points="21,16 17,13 17,16 "/>
</svg>
