<?xml version="1.0" encoding="utf-8"?>
<!-- Generator: Adobe Illustrator 19.2.1, SVG Export Plug-In . SVG Version: 6.00 Build 0)  -->
<svg version="1.1" id="Layer_1" xmlns="http://www.w3.org/2000/svg" xmlns:xlink="http://www.w3.org/1999/xlink" x="0px" y="0px"
	 viewBox="0 0 24 24" style="enable-background:new 0 0 24 24;" xml:space="preserve">
<style type="text/css">
	.st0{fill:#FFFFFF;}
	.st1{fill:#009EDB;}
	.st2{display:none;fill:none;}
	.st3{fill:#9CCC3C;}
	.st4{fill:none;stroke:#000000;stroke-miterlimit:10;}
	.st5{fill:#FF9F02;}
	.st6{fill:#FFA101;}
	.st7{fill:#293275;}
	.st8{fill:none;stroke:#009EDB;stroke-width:1.855;stroke-miterlimit:10;}
	.st9{fill:#915602;}
</style>
<polygon points="18,5 18,14 21,17 14,14 6,14 6,5 "/>
<rect x="8" y="7" transform="matrix(-1 -6.730273e-011 6.730273e-011 -1 24 15)" class="st0" width="8" height="1"/>
<rect x="8" y="9" transform="matrix(-1 -6.730273e-011 6.730273e-011 -1 24 19)" class="st0" width="8" height="1"/>
<rect x="8" y="11" transform="matrix(-1 -6.753011e-011 6.753011e-011 -1 24 23)" class="st0" width="8" height="1"/>
<g id="New_Symbol">
</g>
<polygon class="st1" points="15,11 15,20 18,23 11,20 3,20 3,11 "/>
<rect x="5" y="13" transform="matrix(-1 -6.730273e-011 6.730273e-011 -1 18 27)" class="st0" width="8" height="1"/>
<rect x="5" y="15" transform="matrix(-1 -6.730273e-011 6.730273e-011 -1 18 31)" class="st0" width="8" height="1"/>
<rect x="5" y="17" transform="matrix(-1 -6.753011e-011 6.753011e-011 -1 18 35)" class="st0" width="8" height="1"/>
</svg>
