<?xml version="1.0" encoding="utf-8"?>
<!-- Generator: Adobe Illustrator 19.2.1, SVG Export Plug-In . SVG Version: 6.00 Build 0)  -->
<svg version="1.1" id="Layer_1" xmlns="http://www.w3.org/2000/svg" xmlns:xlink="http://www.w3.org/1999/xlink" x="0px" y="0px"
	 viewBox="0 0 24 24" style="enable-background:new 0 0 24 24;" xml:space="preserve">
<style type="text/css">
	.st0{fill:#FFFFFF;}
	.st1{fill:#009EDB;}
	.st2{display:none;fill:none;}
	.st3{fill:#9CCC3C;}
	.st4{fill:none;stroke:#000000;stroke-miterlimit:10;}
	.st5{fill:#FF9F02;}
	.st6{fill:#FFA101;}
	.st7{fill:#293275;}
	.st8{fill:none;stroke:#009EDB;stroke-width:1.855;stroke-miterlimit:10;}
	.st9{fill:#915602;}
</style>
<g id="New_Symbol">
</g>
<rect x="4" y="2" class="st3" width="16" height="20"/>
<rect x="6" y="9" transform="matrix(-1 -6.007785e-011 6.007785e-011 -1 21.0228 19)" class="st0" width="9" height="1"/>
<rect x="6" y="12" transform="matrix(-1 -4.510582e-011 4.510582e-011 -1 24.0228 25)" class="st0" width="12" height="1"/>
<rect x="6" y="14" transform="matrix(-1 -4.502988e-011 4.502988e-011 -1 24.0228 29)" class="st0" width="12" height="1"/>
<path class="st1" d="M20,2v20H4V2H20 M21,1H3v22h18V1L21,1z"/>
<rect x="2" y="0" class="st1" width="2" height="2"/>
<rect x="20" class="st1" width="2" height="2"/>
<rect x="2" y="22" class="st1" width="2" height="2"/>
<rect x="20" y="22" class="st1" width="2" height="2"/>
</svg>
