<?xml version="1.0" encoding="utf-8"?>
<!-- Generator: Adobe Illustrator 19.2.1, SVG Export Plug-In . SVG Version: 6.00 Build 0)  -->
<svg version="1.1" id="Layer_1" xmlns="http://www.w3.org/2000/svg" xmlns:xlink="http://www.w3.org/1999/xlink" x="0px" y="0px"
	 viewBox="0 0 24 24" style="enable-background:new 0 0 24 24;" xml:space="preserve">
<style type="text/css">
	.st0{fill:#FFFFFF;}
	.st1{fill:#009EDB;}
	.st2{display:none;fill:none;}
	.st3{fill:#9CCC3C;}
	.st4{fill:none;stroke:#000000;stroke-miterlimit:10;}
	.st5{fill:#FF9F02;}
	.st6{fill:#FFA101;}
	.st7{fill:#293275;}
	.st8{fill:none;stroke:#009EDB;stroke-width:1.855;stroke-miterlimit:10;}
	.st9{fill:#915602;}
</style>
<g id="New_Symbol">
</g>
<rect x="8" width="4" height="4"/>
<rect x="16" width="4" height="4"/>
<circle class="st3" cx="10" cy="2" r="1.4"/>
<rect x="12" y="4" width="4" height="4"/>
<circle class="st3" cx="14" cy="6" r="1.4"/>
<rect x="4" y="4" width="4" height="4"/>
<circle class="st3" cx="6" cy="6" r="1.4"/>
<circle class="st3" cx="18" cy="2" r="1.4"/>
<rect x="16" y="8" width="4" height="4"/>
<circle class="st3" cx="18" cy="10" r="1.4"/>
<rect x="8" y="8" width="4" height="4"/>
<circle class="st3" cx="10" cy="10" r="1.4"/>
<rect x="4" y="12" width="4" height="4"/>
<rect x="12" y="12" width="4" height="4"/>
<circle class="st1" cx="6" cy="14" r="1.4"/>
<rect x="16" y="16" width="4" height="4"/>
<circle class="st1" cx="18" cy="18" r="1.4"/>
<rect x="8" y="16" width="4" height="4"/>
<circle class="st1" cx="10" cy="18" r="1.4"/>
<circle class="st1" cx="14" cy="14" r="1.4"/>
<rect x="12" y="20" width="4" height="4"/>
<circle class="st1" cx="14" cy="22" r="1.4"/>
<rect x="4" y="20" width="4" height="4"/>
<circle class="st1" cx="6" cy="22" r="1.4"/>
</svg>
